<svg width="195" height="136" viewBox="0 0 195 136" fill="none" xmlns="http://www.w3.org/2000/svg">
<g clip-path="url(#clip0)">
<rect width="195" height="136" fill="#008C26"/>
<path d="M656.925 285.676C649.2 233.258 629.19 191.136 595.758 156.894C568.136 128.603 530.533 105.319 480.807 85.718C439.02 69.2495 392.834 56.8379 348.169 44.8414C295.677 30.7361 241.391 16.1555 195.3 -4.91205C112.087 -42.9368 50.5918 -49.1827 12.5269 -23.4826C-20.5104 -1.18321 -35.7002 44.5803 -32.6073 112.543C-29.5011 180.914 -8.51386 256.173 8.5437 307.272C28.5468 367.194 54.729 428.255 78.5882 470.611C101.698 511.641 134.387 563.115 182.467 597.244C213.529 619.296 250.61 633.983 292.678 640.899C310.961 643.905 329.832 645.411 349.173 645.411C369.999 645.411 391.361 643.67 413.105 640.182C451.719 633.99 488.278 619.068 521.75 595.831C553.408 573.86 580.896 545.516 603.443 511.595C648.584 443.679 668.078 361.337 656.925 285.676ZM601.769 510.483C579.363 544.19 552.049 572.354 520.599 594.178C487.374 617.24 451.096 632.049 412.777 638.194C371.064 644.882 330.763 645.123 292.999 638.917C251.239 632.049 214.439 617.475 183.625 595.604C158.54 577.796 124.131 547.383 80.3354 469.627C56.5365 427.371 30.4079 366.445 10.4449 306.636C-6.57245 255.658 -27.5061 180.586 -30.6057 112.449C-33.6584 45.2364 -18.7698 0.0619583 13.6449 -21.8223C28.654 -31.9511 47.4052 -37.0121 69.8117 -37.0121C103.324 -37.0121 145.004 -25.6917 194.463 -3.08445C240.709 18.0501 295.075 32.6574 347.646 46.7828C392.258 58.7659 438.383 71.1641 480.07 87.5924C530.219 107.355 566.523 129.821 594.325 158.3C627.449 192.227 647.278 233.988 654.937 285.97C666.023 361.143 646.642 442.976 601.769 510.483Z" fill="#FEB32F"/>
<path d="M574.824 173.831C548.903 147.214 513.643 125.383 467.036 107.1C428.108 91.8099 385.109 80.4025 343.53 69.3633C322.261 63.7198 300.277 57.8822 279.236 51.6296C273.064 49.7953 267.092 47.961 261.489 46.1736C237.596 38.5552 217.305 30.87 199.438 22.6692C104.824 -20.6709 40.5773 -20.209 8.47055 24.0483C-8.74767 47.8673 -16.4329 84.1313 -14.3844 131.836C-12.4363 179.662 -0.413031 239.102 20.3734 303.724C39.687 363.78 65.6884 425.283 89.9224 468.248C111.572 506.661 142.193 554.861 187.193 586.847C229.168 616.698 283.266 632.196 343.382 632.196C362.716 632.196 382.686 630.589 403.064 627.349C438.732 621.692 472.539 608.056 503.555 586.821C532.924 566.71 558.557 540.702 579.752 509.506C623.473 445.205 642.512 366.893 631.989 294.646C624.799 245.455 606.101 205.938 574.824 173.831ZM578.085 508.368C557.037 539.357 531.578 565.191 502.417 585.154C471.649 606.221 438.116 619.744 402.743 625.354C363.727 631.567 326.024 631.747 290.69 625.883C251.628 619.403 217.198 605.712 188.358 585.201C164.894 568.518 132.694 540.04 91.6764 467.257C67.5093 424.399 41.5681 363.037 22.288 303.101C1.55514 238.654 -10.428 179.401 -12.3761 131.749C-14.4112 84.5129 -6.84644 48.6706 10.0973 25.2265C25.9164 3.41587 49.8157 -7.48276 81.5744 -7.48276C112.972 -7.48276 152.061 3.18156 198.601 24.4968C216.535 32.731 236.907 40.4431 260.88 48.0882C266.496 49.8756 272.481 51.7166 278.667 53.5576C299.728 59.8169 321.732 65.6612 343.014 71.3047C384.54 82.3238 427.479 93.7178 466.3 108.968C512.639 127.143 547.665 148.82 573.385 175.23C604.354 207.029 622.871 246.178 629.994 294.921C640.45 366.679 621.532 444.476 578.085 508.368Z" fill="#FEB32F"/>
<path d="M553.877 190.761C529.656 165.818 496.739 145.446 453.252 128.476C417.162 114.357 377.336 103.94 338.823 93.8651C318.706 88.6033 297.906 83.1607 278.01 77.2829C272.24 75.5825 266.67 73.8754 261.448 72.2152C239.249 65.1592 220.317 57.976 203.574 50.2572C157.63 29.1428 119.029 18.9806 88.8373 20.0249C61.2024 20.9889 39.9139 31.352 25.5543 50.833C9.4607 72.8378 2.15701 106.578 3.84402 151.123C5.99965 208.013 22.5551 269.984 36.0713 311.958C54.1196 368.018 78.4876 425.557 101.262 465.871C121.453 501.673 150.005 546.587 191.919 576.431C231.169 604.4 281.752 618.934 337.933 618.927C355.787 618.927 374.217 617.461 393.022 614.489C426.32 609.267 457.884 596.574 486.838 576.759C514.286 557.974 538.258 533.613 558.081 504.365C598.897 444.288 616.738 371.111 607.031 303.583C600.377 257.653 582.991 220.746 553.877 190.761ZM556.421 503.247C536.732 532.287 512.94 556.461 485.7 575.112C457.001 594.76 425.711 607.346 392.707 612.514C374.002 615.473 355.686 616.932 337.926 616.932C282.174 616.932 231.986 602.533 193.077 574.804C171.233 559.246 141.248 532.696 103.003 464.894C80.2951 424.687 55.9807 367.288 37.9792 311.349C24.5032 269.495 7.99461 207.712 5.84568 151.056C4.17875 106.973 11.3485 73.6545 27.1609 52.0313C41.139 33.0725 61.912 22.9839 88.8975 22.04C90.2967 21.9931 91.7092 21.9663 93.1418 21.9663C122.37 21.9663 159.203 32.0884 202.731 52.0781C219.547 59.8304 238.553 67.047 260.839 74.1298C266.074 75.7967 271.664 77.5038 277.441 79.2109C297.364 85.0954 318.184 90.5447 338.314 95.8132C376.774 105.875 416.539 116.278 452.522 130.35C495.742 147.214 528.424 167.438 552.437 192.167C581.244 221.837 598.455 258.376 605.043 303.885C614.683 370.917 596.956 443.579 556.421 503.247Z" fill="#FEB32F"/>
<path d="M532.944 207.712C510.43 184.448 479.856 165.53 439.482 149.865C406.217 136.911 369.545 127.478 334.077 118.354C315.132 113.48 295.544 108.439 276.806 102.943C271.457 101.376 266.282 99.7964 261.429 98.2634C240.903 91.763 223.337 85.0819 207.725 77.8452C165.142 58.217 129.393 48.6773 101.477 49.4806C75.8305 50.217 56.0416 59.6897 42.6459 77.6377C27.6235 97.768 20.708 128.984 22.0871 170.437C23.8478 223.537 39.2116 281.204 51.7839 320.226C68.5536 372.289 91.2948 425.858 112.617 463.528C131.348 496.713 157.831 538.352 196.659 566.054C233.184 592.149 280.253 605.706 332.497 605.706C348.872 605.706 365.769 604.374 382.994 601.676C443.606 592.31 498.099 555.946 536.431 499.27C554.667 472.405 568.491 441.497 576.411 409.885C584.665 376.942 586.58 344.199 582.101 312.574C575.976 269.863 559.896 235.567 532.944 207.712ZM574.449 409.396C566.59 440.78 552.866 471.468 534.758 498.139C496.74 554.346 442.729 590.409 382.672 599.681C311.008 610.901 245.355 598.375 197.811 564.407C177.587 549.981 149.818 525.358 114.351 462.531C93.0956 424.975 70.4146 371.539 53.6851 319.603C41.1463 280.702 25.836 223.236 24.0821 170.363C22.7231 129.386 29.5046 98.5914 44.2459 78.836C57.2533 61.4102 76.52 52.2053 101.524 51.489C129.132 50.6857 164.573 60.1784 206.875 79.6728C222.567 86.9497 240.207 93.6576 260.813 100.185C265.68 101.731 270.868 103.311 276.237 104.878C295.008 110.38 314.616 115.428 333.575 120.308C368.982 129.42 405.594 138.839 438.752 151.746C478.852 167.297 509.192 186.062 531.498 209.117C558.148 236.659 574.048 270.593 580.1 312.862C584.538 344.219 582.637 376.701 574.449 409.396Z" fill="#FEB32F"/>
<path d="M512.003 224.655C491.197 203.072 462.966 185.6 425.704 171.253C395.238 159.458 361.692 150.996 329.257 142.822C311.503 138.343 293.147 133.717 275.587 128.61C270.653 127.177 265.88 125.731 261.388 124.312C242.536 118.367 226.342 112.188 211.862 105.433C172.653 87.2912 139.756 78.3808 114.129 78.9431C90.4979 79.4586 72.1952 88.0343 59.73 104.429C45.7854 122.772 39.2516 151.471 40.316 189.73C41.6817 239.042 55.8472 292.397 67.4822 328.474C82.98 376.54 104.094 426.146 123.95 461.165C141.222 491.732 165.637 530.098 201.379 555.658C235.179 579.872 278.734 592.464 327.041 592.464C341.943 592.464 357.293 591.266 372.945 588.842C428.945 580.34 479.307 546.714 514.754 494.155C531.564 469.359 544.344 440.807 551.695 411.579C559.367 381.079 561.201 350.786 557.137 321.538C551.568 282.074 536.799 250.382 512.003 224.655ZM549.76 411.09C542.463 440.091 529.79 468.422 513.108 493.031C477.975 545.114 428.094 578.439 372.651 586.854C306.757 597.057 246.346 585.395 202.557 554.024C183.953 540.722 158.4 518.028 125.704 460.181C105.902 425.263 84.8545 375.804 69.3969 327.858C57.7953 291.908 43.6833 238.747 42.3243 189.677C41.2733 151.886 47.6732 123.615 61.3367 105.647C73.4136 89.7681 91.1941 81.4603 114.183 80.9515C139.508 80.3958 172.097 89.246 211.025 107.254C225.579 114.049 241.86 120.255 260.792 126.226C265.298 127.652 270.084 129.098 275.032 130.538C292.625 135.652 311.001 140.285 328.768 144.77C361.149 152.937 394.635 161.379 424.988 173.128C461.975 187.367 489.965 204.679 510.564 226.048C535.059 251.453 549.646 282.784 555.162 321.813C559.186 350.806 557.365 380.838 549.76 411.09Z" fill="#FEB32F"/>
<path d="M491.076 241.639C471.976 221.73 446.089 205.717 411.94 192.676C384.258 182.025 353.812 174.534 324.369 167.29C307.834 163.22 290.73 159.016 274.375 154.303C269.849 153.004 265.471 151.686 261.361 150.394C244.417 145.071 229.582 139.401 216.006 133.055C180.237 116.339 150.205 108.031 126.815 108.379C105.192 108.7 88.3752 116.392 76.8205 131.254C63.947 147.816 57.7947 173.992 58.5445 209.057C59.5152 254.56 72.4824 303.617 83.1869 336.755C97.4194 380.825 116.9 426.468 135.297 458.836C151.116 486.792 173.455 521.878 206.111 545.288C237.187 567.628 277.227 579.249 321.598 579.249C335.014 579.249 348.838 578.185 362.916 576.036C414.296 568.391 460.529 537.509 493.104 489.075C508.495 466.347 520.217 440.144 527.005 413.306C534.101 385.256 535.848 357.407 532.2 330.542C527.166 294.312 513.71 265.231 491.076 241.639ZM525.07 412.811C518.335 439.428 506.714 465.41 491.45 487.95C459.196 535.916 413.446 566.49 362.628 574.054C302.505 583.246 247.343 572.448 207.296 543.661C190.312 531.484 166.975 510.724 137.057 457.845C118.721 425.584 99.3006 380.088 85.1082 336.139C74.4439 303.128 61.5303 254.279 60.5663 209.017C59.8299 174.42 65.8348 148.673 78.4205 132.486C89.7408 117.925 105.587 110.695 126.862 110.387C149.978 110.039 179.681 118.287 215.175 134.876C228.832 141.256 243.748 146.959 260.778 152.308C264.902 153.607 269.294 154.926 273.839 156.231C290.234 160.951 307.352 165.162 323.907 169.239C353.29 176.469 383.669 183.946 411.237 194.55C445.104 207.484 470.751 223.337 489.643 243.025C511.976 266.302 525.258 295.021 530.238 330.817C533.833 357.427 532.099 385.015 525.07 412.811Z" fill="#FEB32F"/>
<path d="M470.189 258.61C452.797 240.401 429.239 225.84 398.163 214.098C373.233 204.585 345.866 198.045 319.389 191.725C304.099 188.077 288.28 184.301 273.157 179.996C269.053 178.832 265.07 177.647 261.328 176.475C246.292 171.782 232.441 166.467 220.15 160.683C157.396 131.14 116.104 130.29 93.9119 158.085C82.1095 172.867 76.3456 196.518 76.7807 228.398C77.3498 270.084 89.1187 314.837 98.8926 345.049C111.853 385.136 129.701 426.802 146.644 456.519C161.004 481.858 181.275 513.67 210.845 534.938C239.135 555.356 275.734 565.994 316.356 565.994C328.219 565.994 340.436 565.084 352.882 563.249C399.589 556.354 441.697 528.21 471.448 484C485.412 463.254 496.083 439.401 502.323 415.02C508.883 389.367 510.544 363.974 507.263 339.56C502.831 306.562 490.701 280.092 470.189 258.61ZM500.375 414.518C494.196 438.678 483.618 462.316 469.781 482.875C440.352 526.604 398.725 554.439 352.587 561.254C340.236 563.075 328.125 563.979 316.35 563.979C276.156 563.979 239.959 553.469 212.016 533.305C196.646 522.252 175.531 503.421 148.385 455.522C131.508 425.919 113.714 384.393 100.801 344.426C83.174 289.933 79.097 251.239 78.7891 228.371C78.3606 196.974 83.9773 173.75 95.4851 159.344C105.848 146.37 120.603 139.876 140.01 139.876C160.93 139.876 187.253 147.421 219.3 162.504C231.671 168.328 245.609 173.677 260.732 178.396C264.494 179.575 268.491 180.76 272.615 181.931C287.778 186.242 303.617 190.025 318.927 193.68C345.337 199.986 372.644 206.507 397.453 215.973C428.248 227.608 451.565 242.007 468.743 259.996C488.954 281.157 500.903 307.265 505.282 339.821C508.515 363.981 506.868 389.112 500.375 414.518Z" fill="#FEB32F"/>
</g>
<defs>
<clipPath id="clip0">
<rect width="195" height="136" fill="white"/>
</clipPath>
</defs>
</svg>
