<svg width="136" height="136" viewBox="0 0 136 136" fill="none" xmlns="http://www.w3.org/2000/svg">
<g clip-path="url(#clip0)">
<rect width="136" height="136" fill="#005CE7"/>
<path d="M266.575 -8.99718C266.351 -9.52313 266.048 -10.1519 265.697 -10.835C265.328 -11.506 264.904 -12.2254 264.474 -12.9448C261.828 -17.2975 258.626 -21.7167 255.054 -25.6583C242.08 -40.0644 225.208 -51.0307 206.561 -56.6167C197.553 -59.3129 188.133 -60.7094 178.707 -60.5704C176.352 -60.5401 173.997 -60.4132 171.654 -60.1714L169.898 -60.0081C169.311 -59.9537 168.73 -59.851 168.149 -59.7724C166.986 -59.5971 165.812 -59.4641 164.655 -59.2464C160.012 -58.4484 155.441 -57.2152 150.991 -55.6676L149.327 -55.0691C148.77 -54.8756 148.219 -54.6701 147.68 -54.4343L144.423 -53.062L141.238 -51.5265C140.179 -51.0187 139.162 -50.4141 138.121 -49.8579C134.01 -47.5486 130.093 -44.8947 126.424 -41.9385C120.231 -36.9148 114.825 -30.9722 110.284 -24.4371C109.54 -25.4467 108.819 -26.4623 108.141 -27.5021C106.004 -30.7364 104.267 -34.1762 103.231 -37.7974C102.208 -41.4186 101.899 -45.209 102.747 -48.7456C103.564 -52.2882 105.496 -55.5225 108.117 -58.2006C112.01 -62.2026 117.107 -65.1225 122.417 -67.4258C128.858 -70.1886 135.705 -72.111 142.631 -73.6344C149.569 -75.1518 156.616 -76.2521 163.699 -77.1528C166.526 -77.5156 169.698 -77.9387 172.047 -78.368C173.646 -78.6642 174.33 -79.0874 174.778 -79.4017C174.869 -79.4682 172.132 -79.3776 170.697 -79.2204C164.776 -78.5796 158.825 -77.7211 153.014 -76.8264C147.159 -75.9317 141.335 -74.8254 135.602 -73.3684C129.875 -71.8934 124.221 -70.0858 118.869 -67.5649C117.531 -66.9361 116.217 -66.2591 114.934 -65.5215C113.65 -64.7961 112.397 -64.0041 111.198 -63.1457C108.783 -61.4469 106.573 -59.4338 104.739 -57.1124C102.935 -54.7728 101.53 -52.0826 100.84 -49.1809C100.489 -47.736 100.301 -46.2488 100.247 -44.7617C100.216 -43.2685 100.337 -41.7813 100.549 -40.3002C100.931 -37.9425 101.53 -35.609 102.462 -33.4266C104.152 -29.491 106.47 -25.9182 108.995 -22.5388C108.613 -21.9585 108.226 -21.3842 107.863 -20.7978C101.7 -10.8289 97.6071 0.373161 95.7183 11.9138C94.7738 17.6871 94.3743 23.5451 94.5014 29.385C94.6225 35.2248 95.1976 40.9679 95.7486 46.6929C96.3116 52.4179 96.9109 58.1066 97.2197 63.7892C97.2742 64.7384 97.3105 65.6935 97.3468 66.6427C82.5326 59.6844 67.5489 53.1736 52.8619 46.1004C44.6587 42.183 36.5826 38.0359 28.6821 33.5865C28.0101 33.2117 27.3442 32.8369 26.6782 32.456C27.4108 31.1925 28.1796 29.9472 28.9848 28.72C30.3833 26.5739 31.8847 24.4882 33.4527 22.4328C36.7521 18.0922 40.3058 13.8967 43.7869 9.60446C47.268 5.31224 50.6582 0.862839 53.6247 -3.86465C56.6033 -8.58006 59.2307 -13.5312 61.3738 -18.694C63.5109 -23.8628 65.1758 -29.2492 66.1141 -34.7928C67.3915 -42.6095 67.331 -50.7164 65.1515 -58.4666C62.9055 -66.1563 58.6192 -73.1931 52.8982 -78.7911C51.4573 -80.1816 49.9378 -81.4874 48.3214 -82.6844C46.6989 -83.8693 44.9977 -84.9453 43.2239 -85.8945C39.6581 -87.7625 35.7835 -89.1288 31.7576 -89.6789C27.7377 -90.2834 23.5907 -90.0114 19.6556 -89.0562C15.7084 -88.095 11.973 -86.4083 8.58884 -84.238C1.80228 -79.8672 -3.55553 -73.7251 -7.80545 -67.0691C-9.93041 -63.7321 -11.7829 -60.2197 -13.3873 -56.6167C-14.9916 -53.0136 -16.3719 -49.3078 -17.4858 -45.5173C-19.7258 -37.9485 -20.87 -29.9807 -20.3918 -22.0189C-19.9256 -14.0814 -17.7159 -6.13168 -13.6839 0.772156C-10.9656 5.58428 -7.55118 9.96719 -3.7432 13.9088C0.0768814 17.8443 4.27837 21.3688 8.66148 24.597C13.1233 27.8797 17.7607 30.8479 22.501 33.6349C22.0893 34.3905 21.6958 35.1281 21.3447 35.8293C19.6616 39.0394 18.3176 42.4249 17.2703 45.8828C16.2351 49.3468 15.5025 52.8894 15.0182 56.4501C14.0556 63.5898 14.0132 70.7596 14.6671 77.9113C14.994 81.2785 15.5267 84.6277 16.2714 87.9405C10.0055 87.4267 3.63059 87.6745 -2.65953 89.0227C-8.58036 90.3043 -14.4467 92.6499 -19.2899 96.5794C-21.6994 98.5321 -23.8365 100.872 -25.5135 103.501C-27.2207 106.119 -28.4375 109.021 -29.2791 111.977C-30.956 117.926 -31.1376 124.05 -30.9318 130.004L-30.8349 132.241L-30.6775 134.466L-30.3567 138.915L-29.8724 143.346L-29.6302 145.565C-29.5333 146.303 -29.4183 147.034 -29.3093 147.772L-28.6555 152.185C-28.4073 153.648 -28.1106 155.111 -27.8443 156.568C-27.3478 159.5 -26.5971 162.383 -25.9554 165.285C-24.4722 171.046 -22.8497 176.777 -20.7671 182.357C-19.8045 185.174 -18.6361 187.913 -17.51 190.67L-17.0863 191.704L-16.6201 192.719L-15.6878 194.75L-14.7555 196.782L-14.2893 197.797L-13.7808 198.789C-12.4126 201.437 -11.0928 204.109 -9.56717 206.666L-8.45929 208.606C-8.08999 209.253 -7.7207 209.9 -7.30902 210.523L-4.91163 214.295C-0.928085 220.316 3.46108 226.072 8.26192 231.47C13.093 236.844 18.3903 241.856 24.299 246.118C30.1956 250.374 36.734 253.868 43.799 255.924C50.8459 257.967 58.3468 258.59 65.6358 257.399C71.9926 256.335 78.1979 253.838 83.2712 249.715C88.3142 245.604 92.1525 240.073 94.2048 233.888C95.2218 230.799 95.7788 227.541 95.7546 224.264C95.7485 220.987 95.0766 217.693 93.8779 214.658C92.6792 211.611 90.9719 208.818 89.0346 206.261C87.0913 203.698 84.924 201.358 82.7021 199.115C78.7973 195.161 74.6442 191.486 71.1087 187.429C69.3712 185.386 67.8274 183.18 66.5197 180.84C65.2181 178.506 64.1405 176.04 63.4382 173.495C62.736 170.95 62.397 168.314 62.6452 165.745C62.8813 163.175 63.7409 160.703 65.2121 158.617C65.9386 157.559 66.8285 156.652 67.7911 155.818C68.3057 155.443 68.79 155.02 69.353 154.712C69.6315 154.549 69.8918 154.361 70.1764 154.222L71.0421 153.793C73.3729 152.693 75.9882 152.185 78.5975 152.088C80.8617 152.04 83.138 152.342 85.3054 152.983C85.5778 153.067 85.8502 153.134 86.1166 153.225L86.9097 153.521C87.4424 153.696 87.957 153.968 88.4716 154.21C88.9862 154.458 89.5129 154.688 90.0214 154.954L91.4986 155.836L92.2372 156.278L92.9334 156.779L94.3319 157.789C94.7799 158.152 95.2097 158.533 95.6517 158.907C96.0936 159.282 96.5356 159.651 96.9351 160.068L98.1702 161.289C98.5758 161.7 98.9451 162.154 99.3386 162.583C100.132 163.435 100.834 164.366 101.56 165.279C104.412 168.985 106.815 173.066 109.201 177.176C111.586 181.293 113.905 185.495 116.689 189.485C120.152 194.43 124.184 198.982 128.822 202.906C132.327 205.844 136.159 208.419 140.306 210.426C144.447 212.433 148.933 213.86 153.583 214.35C158.22 214.851 162.997 214.416 167.458 212.953C171.951 211.544 176.049 209.072 179.542 206.001C181.891 204.006 183.925 201.684 185.76 199.236C187.618 196.8 189.15 194.14 190.494 191.407L191.463 189.334L192.304 187.206C192.607 186.504 192.819 185.767 193.061 185.042C193.291 184.316 193.557 183.597 193.727 182.853C194.586 179.915 195.034 176.874 195.374 173.852C195.482 172.334 195.628 170.817 195.616 169.293C195.676 167.77 195.591 166.246 195.537 164.729C195.325 161.694 194.998 158.659 194.362 155.685L194.145 154.567L193.878 153.46L193.333 151.248C192.891 149.797 192.516 148.322 191.989 146.895C191.045 144.005 189.84 141.212 188.545 138.474C184.591 130.246 179.161 122.847 173.077 116.173C171.654 114.601 170.177 113.071 168.663 111.59C169.735 110.84 170.776 110.042 171.769 109.172C172.998 108.084 174.178 106.923 175.22 105.623C175.765 105.001 176.231 104.299 176.721 103.628C177.169 102.921 177.629 102.226 178.011 101.476C179.633 98.5321 180.535 95.2071 180.838 91.9184C181.141 88.6116 180.868 85.3108 180.202 82.1309C179.863 80.547 179.433 78.9571 178.907 77.4518C178.64 76.7022 178.398 75.9344 178.113 75.1908L177.236 72.9722C174.766 67.1081 171.569 61.6431 168.179 56.4139C164.008 49.9695 159.6 43.8213 155.689 37.3709C151.694 30.8661 147.529 24.464 143.212 18.1647C134.579 5.57824 125.226 -6.58508 115.291 -18.1318C114.213 -19.4134 113.148 -20.701 112.113 -22.0008C114.595 -25.6824 117.361 -29.1706 120.382 -32.417C126.685 -39.1757 134.21 -44.7556 142.431 -48.9693C152.378 -54.0232 163.396 -56.8827 174.548 -57.6142L174.542 -57.6323C184.525 -58.255 194.605 -57.0701 204.243 -54.3617C213.893 -51.6595 223.083 -47.4156 231.534 -42.0654C243.43 -34.5027 253.952 -24.7938 262.125 -13.2531C264.371 -10.0612 265.988 -7.7337 266.75 -7.44352C267.168 -7.30448 267.029 -7.94528 266.575 -8.99718ZM6.10063 18.7088C-0.855436 13.0685 -7.0487 6.42459 -11.3107 -1.33163C-13.4296 -5.20673 -15.0582 -9.32968 -16.051 -13.6219C-17.056 -17.9081 -17.4677 -22.3393 -17.3708 -26.7585C-17.2134 -32.55 -16.2508 -38.3294 -14.6102 -43.9153C-14.2288 -45.3179 -13.7384 -46.6962 -13.2904 -48.0806C-13.0482 -48.7698 -12.7819 -49.4469 -12.5336 -50.13C-12.2854 -50.8131 -12.019 -51.4962 -11.7345 -52.1612C-10.6569 -54.8696 -9.38555 -57.5053 -8.04156 -60.0746C-6.69151 -62.65 -5.14168 -65.1044 -3.5071 -67.4984C-1.8483 -69.8742 -0.0199814 -72.111 1.92336 -74.239C3.90302 -76.3307 6.03404 -78.2531 8.31035 -79.9881C10.6169 -81.6748 13.0749 -83.1196 15.6599 -84.2804C18.9896 -85.7252 22.6039 -86.6199 26.2242 -86.7227C29.8506 -86.8738 33.489 -86.2391 36.9398 -85.0542C43.8596 -82.6239 49.8954 -77.9206 54.6296 -72.2561C56.0039 -70.6178 57.2934 -68.5563 58.3952 -66.5553C59.8966 -63.7986 61.1498 -60.8968 62.0155 -57.8923C62.4575 -56.393 62.7965 -54.8696 63.0629 -53.334C63.19 -52.5663 63.2627 -51.7743 63.3656 -50.9945C63.4564 -50.2146 63.5835 -49.4348 63.5956 -48.6428C64.2495 -39.478 62.5059 -30.1802 59.1338 -21.5111C55.7739 -12.8179 50.8943 -4.70496 45.0643 2.64018C39.9608 9.07852 34.4274 15.1058 29.6144 22.0821C27.7559 24.7481 25.7641 27.8917 24.0084 30.9144C17.7486 27.2449 11.7006 23.2549 6.10063 18.7088ZM18.2026 80.1843C17.5972 75.1062 17.4701 69.9495 17.7122 64.823C17.9786 59.7026 18.6446 54.6003 19.8493 49.637C21.0541 44.6737 22.7613 39.8435 25.0981 35.3276C25.1224 35.2792 25.1466 35.2369 25.1708 35.1946C28.9061 37.3286 32.6838 39.3659 36.4736 41.373C55.6225 51.4023 75.4857 59.8174 94.9434 68.9218C95.7728 69.3087 96.5961 69.6956 97.4194 70.0885C97.4558 73.6613 97.3347 77.216 96.9775 80.7405C96.6688 83.5335 96.2268 86.3143 95.6275 89.0529C95.0039 91.7854 94.2048 94.4696 93.2301 97.0812C92.2614 99.6988 91.0325 102.202 89.64 104.596C88.7804 106.089 87.7996 107.509 86.7462 108.864C72.2166 104.124 57.923 98.3447 43.3086 93.7441C35.9712 91.4348 28.4763 89.5909 20.8119 88.4665C20.4123 88.4121 20.0067 88.3577 19.6072 88.3093C18.9896 85.6252 18.5295 82.9108 18.2026 80.1843ZM100.368 71.479C108.395 75.3117 116.338 79.2896 124.1 83.5818L127.659 85.5587C128.846 86.2176 130.002 86.931 131.171 87.6141L134.676 89.6877C135.85 90.3708 136.97 91.1264 138.121 91.8459C142.728 94.7053 147.226 97.7341 151.561 100.968C155.804 104.118 159.897 107.461 163.759 111.046C163.372 111.258 162.984 111.463 162.591 111.663C161.229 112.34 159.842 112.968 158.414 113.5C156.985 114.038 155.508 114.468 154.061 114.957C152.59 115.374 151.088 115.713 149.611 116.1C148.098 116.366 146.596 116.674 145.083 116.91C139.005 117.793 132.817 117.901 126.66 117.478C114.334 116.614 102.184 113.688 90.312 110.006C90.0517 109.928 89.7974 109.837 89.5432 109.758C90.306 108.725 91.0325 107.655 91.7045 106.566C93.9384 102.933 95.6698 99.0217 96.9715 94.9895C99.3931 87.3783 100.344 79.3863 100.368 71.479ZM84.7121 111.288C82.4176 113.803 79.7962 115.955 76.9024 117.714C73.9662 119.437 70.7757 120.713 67.4702 121.583L66.2231 121.891C65.8114 122 65.3937 122.103 64.9699 122.151L62.4333 122.562L59.8724 122.768C59.4487 122.816 59.0188 122.816 58.589 122.81H57.3055C53.885 122.756 50.4645 122.303 47.1772 121.365C43.9019 120.398 40.7659 118.984 37.9024 117.146C35.0267 115.332 32.4598 112.993 30.232 110.399C27.992 107.8 26.0789 104.916 24.4806 101.857C22.8824 98.792 21.6413 95.5335 20.6303 92.2086C20.5879 92.0756 20.5516 91.9426 20.5153 91.8036C31.2854 93.2907 41.8557 96.2892 52.2444 99.8137C61.7855 103.042 71.2903 106.578 80.8799 109.952C82.1573 110.405 83.4347 110.846 84.7121 111.288ZM175.026 123.064C178.398 127.242 181.383 131.703 183.895 136.418C186.432 141.122 188.442 146.097 189.913 151.212C191.36 156.175 192.183 161.301 192.383 166.446C192.589 171.578 192.098 176.759 190.803 181.68C189.543 186.631 187.358 191.329 184.567 195.579C183.114 197.664 181.57 199.696 179.76 201.473C178.907 202.41 177.92 203.208 176.981 204.048C176.509 204.471 175.982 204.81 175.48 205.197C174.971 205.566 174.481 205.971 173.936 206.279L172.338 207.276C171.799 207.603 171.224 207.851 170.673 208.141C169.577 208.758 168.379 209.138 167.228 209.616C166.641 209.828 166.03 209.973 165.436 210.154C164.837 210.329 164.238 210.511 163.62 210.62L162.7 210.813L161.774 210.952C161.156 211.055 160.533 211.115 159.909 211.17C154.921 211.617 149.847 210.734 145.107 208.945C140.355 207.156 135.923 204.483 131.909 201.279C127.895 198.075 124.275 194.345 121.109 190.277C119.523 188.233 118.07 186.13 116.708 183.893C115.333 181.674 114.02 179.401 112.694 177.098C110.048 172.509 107.342 167.842 104.03 163.496C102.378 161.319 100.513 159.276 98.5031 157.36C96.4266 155.51 94.1806 153.805 91.7105 152.457C91.1112 152.094 90.4513 151.834 89.8217 151.52C89.186 151.224 88.5624 150.903 87.8723 150.673C86.5343 150.141 85.1359 149.803 83.7374 149.513C80.9223 148.999 78.0284 148.963 75.183 149.416C72.3437 149.9 69.5528 150.939 67.1009 152.596C64.6733 154.295 62.6573 156.604 61.3678 159.264C60.0601 161.936 59.5213 164.916 59.5697 167.788C59.6182 170.672 60.1993 173.483 61.1074 176.131C62.0216 178.779 63.2263 181.293 64.6612 183.657C66.096 186.021 67.7427 188.252 69.5891 190.307C73.2518 194.339 77.2172 197.894 80.8738 201.624C83.4105 204.187 85.7715 206.859 87.7451 209.743C89.7309 212.608 91.2201 215.764 92.0011 219.059C92.776 222.348 92.8547 225.818 92.2009 229.179C91.5652 232.54 90.2999 235.799 88.5564 238.767C86.8068 241.741 84.5728 244.431 81.9696 246.68C79.3603 248.917 76.3454 250.658 73.1247 251.958C66.6832 254.557 59.491 255.247 52.5229 254.364C47.1348 253.735 41.9102 252.091 36.9701 249.782C32.03 247.466 27.4168 244.431 23.1124 241.004C14.5399 234.07 7.1722 225.57 0.803366 216.496C0.0163422 215.347 -0.807005 214.235 -1.5577 213.062L-3.77953 209.537C-4.14882 208.945 -4.53023 208.365 -4.88136 207.772L-5.91054 205.959L-7.96891 202.331C-10.5419 197.404 -13.0119 192.411 -15.0582 187.236C-17.2194 182.103 -18.9448 176.808 -20.5915 171.488C-22.0808 166.126 -23.4854 160.727 -24.4661 155.244C-25.5619 149.779 -26.2339 144.241 -26.8332 138.704L-27.142 134.538C-27.2449 133.148 -27.3539 131.757 -27.4084 130.373C-27.5234 127.604 -27.5476 124.848 -27.3902 122.121C-27.2389 119.395 -26.8756 116.704 -26.246 114.105C-25.9433 112.799 -25.5256 111.536 -25.0776 110.29C-24.5811 109.063 -24.0605 107.848 -23.4006 106.711C-22.1353 104.408 -20.4886 102.335 -18.5756 100.527C-16.6443 98.7376 -14.4588 97.2021 -12.0856 95.9749C-7.34534 93.4902 -1.99359 92.13 3.42476 91.5073C7.95316 90.9995 12.5542 90.9995 17.125 91.4166C17.9302 94.3426 18.9352 97.2202 20.1823 100.001C23.2759 106.977 27.8709 113.464 34.052 118.18C46.0208 127.302 63.1537 128.336 75.8611 121.414C77.0598 120.694 78.4341 120.029 79.7114 119.123C80.0384 118.911 80.3653 118.693 80.6983 118.482L81.1947 118.155L81.6608 117.787C82.2784 117.297 82.8898 116.807 83.4952 116.33C84.9724 115.084 86.3285 113.706 87.5817 112.249C97.1833 115.417 107.009 118.095 117.095 119.624C123.306 120.561 129.615 121.057 135.941 120.882C142.262 120.7 148.612 119.842 154.739 118.034C158.638 116.892 162.506 115.35 166.09 113.259C169.25 116.348 172.259 119.606 175.026 123.064ZM111.102 -19.8003C112.772 -17.7025 114.492 -15.6592 116.193 -13.6038L118.724 -10.5146L121.212 -7.4012C127.799 0.941429 133.992 9.54401 139.937 18.3582C142.909 22.7653 145.84 27.2691 148.733 31.7427C150.671 34.7291 152.547 37.7336 154.448 40.7563C156.361 43.7911 158.371 46.7473 160.375 49.6914C164.395 55.5736 168.421 61.4255 171.708 67.6764C173.755 71.5576 175.516 75.5959 176.751 79.7732C177.962 83.9264 178.477 88.3033 177.908 92.535C177.375 96.7729 175.541 100.739 172.768 103.967C170.958 106.083 168.802 107.896 166.46 109.444C166.29 109.287 166.12 109.124 165.951 108.96C163.469 106.657 160.908 104.444 158.268 102.335C152.995 98.1028 147.48 94.1915 141.795 90.5824C130.456 83.2977 118.584 76.8956 106.507 71.0135C104.454 70.0099 102.396 69.0245 100.331 68.0452C100.126 60.3071 99.2175 52.6416 98.491 45.0244C98.0551 40.3634 97.6313 35.7084 97.4558 31.0656C97.25 26.4409 97.4558 21.804 97.9462 17.2096C98.9148 8.00848 101.397 -1.01728 105.15 -9.45663C106.791 -13.1383 108.716 -16.6869 110.878 -20.0905C110.944 -19.9937 111.023 -19.897 111.102 -19.8003Z" fill="#FEB32F"/>
</g>
<defs>
<clipPath id="clip0">
<rect width="136" height="136" fill="white"/>
</clipPath>
</defs>
</svg>
