<svg width="220" height="136" viewBox="0 0 220 136" fill="none" xmlns="http://www.w3.org/2000/svg">
<g clip-path="url(#clip0)">
<rect width="220" height="136" fill="#FFAE1B"/>
<g clip-path="url(#clip1)">
<path d="M61.5742 20H159.393V117.819H61.5742V20Z" fill="#E5DCD7"/>
<path d="M96 54.3937H125V83.3937H96V54.3937Z" fill="#FFAE1B"/>
<path d="M110.68 68.3204V-54H-13V69.6796H109.32V192H233V68.3204H110.68ZM231.641 93.1243H208.196V69.6796H231.641V93.1243ZM110.68 93.8039H134.124V117.588H110.68V93.8039ZM159.268 142.052V118.268H183.052V142.052H159.268ZM183.052 142.732V166.517H159.268V142.732H183.052ZM158.588 142.052H134.804V118.268H158.588V142.052ZM159.268 117.588V93.8039H183.052V117.588H159.268ZM183.732 118.268H207.517V142.052H183.732V118.268ZM183.732 117.588V93.8039H207.517V117.588H183.732ZM183.732 93.1243V69.6796H207.517V93.1243H183.732ZM183.052 93.1243H159.268V69.6796H183.052V93.1243ZM158.588 93.1243H134.804V69.6796H158.588V93.1243ZM158.588 93.8039V117.588H134.804V93.8039H158.588ZM110.68 118.268H134.124V142.052H110.68V118.268ZM110.68 142.732H134.124V166.517H110.68V142.732ZM134.804 142.732H158.588V166.517H134.804V142.732ZM158.588 167.196V190.641H134.804V167.196H158.588ZM159.268 167.196H183.052V190.641H159.268V167.196ZM183.732 167.196H207.517V190.641H183.732V167.196ZM183.732 166.517V142.732H207.517V166.517H183.732ZM208.196 142.732H231.641V166.517H208.196V142.732ZM208.196 142.052V118.268H231.641V142.052H208.196ZM208.196 117.588V93.8039H231.641V117.588H208.196ZM134.124 69.6796V93.1243H110.68V69.6796H134.124ZM109.32 19.732H85.8757V-4.05248H109.32V19.732ZM36.9475 19.732V-4.05248H60.732V19.732H36.9475ZM60.732 20.4116V44.1961H36.9475V20.4116H60.732ZM36.268 19.732H12.4834V-4.05248H36.268V19.732ZM36.9475 -4.73204V-28.5166H60.732V-4.73204H36.9475ZM61.4116 -4.05248H85.1961V19.732H61.4116V-4.05248ZM109.32 -4.73204H85.8757V-28.5166H109.32V-4.73204ZM85.1961 -4.73204H61.4116V-28.5166H85.1961V-4.73204ZM61.4116 -29.1961V-52.6409H85.1961V-29.1961H61.4116ZM60.732 -29.1961H36.9475V-52.6409H60.732V-29.1961ZM36.268 -29.1961H12.4834V-52.6409H36.268V-29.1961ZM36.268 -28.5166V-4.73204H12.4834V-28.5166H36.268ZM11.8039 -4.73204H-11.6409V-28.5166H11.8039V-4.73204ZM11.8039 -4.05248V19.732H-11.6409V-4.05248H11.8039ZM11.8039 20.4116V44.1961H-11.6409V20.4116H11.8039ZM12.4834 20.4116H36.268V44.1961H12.4834V20.4116ZM36.268 44.8757V68.3204H12.4834V44.8757H36.268ZM36.9475 44.8757H60.732V68.3204H36.9475V44.8757ZM61.4116 44.8757H85.1961V68.3204H61.4116V44.8757ZM61.4116 44.1961V20.4116H85.1961V44.1961H61.4116ZM85.8757 20.4116H109.32V44.1961H85.8757V20.4116ZM109.32 -29.1961H85.8757V-52.6409H109.32V-29.1961ZM11.8039 -52.6409V-29.1961H-11.6409V-52.6409H11.8039ZM-11.6409 44.8757H11.8039V68.3204H-11.6409V44.8757ZM85.8757 68.3204V44.8757H109.32V68.3204H85.8757ZM110.68 167.196H134.124V190.641H110.68V167.196ZM208.196 190.641V167.196H231.641V190.641H208.196Z" fill="#FF5B2B"/>
</g>
</g>
<defs>
<clipPath id="clip0">
<rect width="220" height="136" fill="white"/>
</clipPath>
<clipPath id="clip1">
<rect width="246" height="246" fill="white" transform="translate(-13 -48)"/>
</clipPath>
</defs>
</svg>
