<svg width="125" height="118" viewBox="0 0 125 118" fill="none" xmlns="http://www.w3.org/2000/svg">
<g clip-path="url(#clip0)">
<path d="M111.815 58.4743C111.412 39.1221 99.9882 19.7773 81.7407 12.3198C62.9855 4.66096 39.7057 9.88121 26.0275 24.8111C1.3665 51.7252 15.0596 97.6485 50.6064 106.486C73.0201 112.056 98.5547 99.5875 107.91 78.4902C110.717 72.1737 111.957 65.3203 111.815 58.4743Z" fill="#E5DCD7"/>
<path d="M113.121 94.8072C113.181 94.7997 113.248 94.7848 113.308 94.7773C113.808 94.0838 114.293 93.3828 114.764 92.6669C114.54 92.7116 114.316 92.7489 114.092 92.7937C112.725 93.077 111.359 93.3679 109.97 93.517C106.708 92.1747 103.445 90.8323 100.182 89.4974C94.9035 87.3422 89.6174 85.2168 84.3388 83.0691C78.9855 80.884 73.6396 78.6915 68.2863 76.4916C64.038 74.754 59.7972 73.0014 55.5564 71.2639C53.9362 69.653 52.3011 68.0571 50.6884 66.4389C49.2474 64.9995 47.8213 63.5453 46.4028 62.0837C45.9622 61.6288 45.5591 61.144 45.1186 60.6817C44.0733 59.5705 43.0355 58.4668 41.9379 57.4078C41.8931 56.319 41.8483 55.2228 41.8035 54.134C41.7065 51.8147 41.5945 49.5029 41.5049 47.1836C41.4452 45.6697 41.4078 44.1558 41.363 42.642C44.2077 41.7993 47.0449 40.9491 49.882 40.0915C51.1289 39.7186 52.3683 39.3383 53.6077 38.958C56.0044 39.7783 58.4085 40.6061 60.8126 41.4189C66.599 43.3803 72.4002 45.3043 78.1791 47.2656C79.2916 47.646 80.4041 48.0337 81.5165 48.4215C84.1297 51.054 86.7355 53.694 89.3486 56.3339C92.3575 59.3766 95.344 62.4342 98.3604 65.4619C101.377 68.4971 104.43 71.495 107.447 74.5302C109.53 76.6258 111.561 78.7736 113.644 80.8691C115.301 82.5396 116.974 84.2026 118.646 85.8582C118.982 85.1795 119.296 84.4935 119.602 83.7999C117.758 82.0549 115.943 80.2725 114.129 78.4902C112.322 76.7227 110.538 74.9329 108.739 73.1581C107.156 71.592 105.558 70.0334 103.982 68.4598C102.616 67.1026 101.272 65.7229 99.9209 64.3508C99.5027 63.9257 99.122 63.4559 98.7113 63.0233C97.4719 61.7108 96.24 60.3908 94.8961 59.1752C93.1191 57.5644 91.6408 55.6479 89.8713 54.0221C89.2068 53.4106 88.505 52.8364 87.8703 52.195C87.0864 51.4045 86.3099 50.6066 85.5259 49.8086C87.0565 50.3456 88.5871 50.8751 90.1177 51.3971C101.675 55.3346 113.293 59.0932 124.843 63.0382C124.895 62.3521 124.94 61.666 124.97 60.98C123.357 60.3312 121.722 59.742 120.05 59.1752C113.614 57.0051 107.208 54.7157 100.72 52.6947C96.785 51.4717 92.8727 50.1591 88.9604 48.869C86.7952 48.1531 84.6374 47.4297 82.4797 46.7063C82.3826 46.6019 82.2781 46.505 82.181 46.4006C80.7849 44.9836 79.3812 43.5742 77.9775 42.1647C75.3867 39.5546 72.7661 36.9743 70.2126 34.3343C70.1081 34.2299 70.011 34.1181 69.9065 34.0062C72.684 33.1933 75.4614 32.3879 78.2389 31.5527C89.7369 28.0924 101.183 24.4457 112.688 21.0152C112.27 20.4559 111.837 19.919 111.404 19.3746C109.53 19.7997 107.686 20.3068 105.827 20.8661C99.6073 22.7528 93.358 24.5277 87.1834 26.5711C83.4428 27.809 79.6724 28.9649 75.9094 30.1357C73.4231 30.9113 70.9369 31.6645 68.4506 32.4252C67.4128 31.2842 66.3675 30.1432 65.2102 29.1066C64.053 28.07 63.1197 26.7799 61.8206 25.8775C61.6339 25.7507 61.4921 25.527 61.3278 25.3555C60.8798 24.8708 60.4318 24.386 59.9839 23.9013C58.6623 22.4993 57.1243 21.3284 55.8924 19.8369C55.3548 19.1881 54.7948 18.5841 54.0781 18.1068C53.645 17.8234 53.1448 17.4431 52.9059 17.0255C52.1667 15.7502 51.0094 14.9075 49.9716 13.9381C48.8666 12.9164 47.7243 11.9395 46.6566 10.8805C45.6337 9.86627 44.6855 8.77002 43.4461 8.01681C43.2072 7.86766 43.0056 7.61411 42.7966 7.39784C41.9006 6.47311 41.0121 5.54092 40.1162 4.60873C40.0938 3.10232 40.0415 1.55116 39.9967 0C39.3621 0.246097 38.7275 0.484737 38.1003 0.74575C38.1227 1.38709 38.1451 2.02844 38.1675 2.66233C37.951 2.46097 37.7419 2.25962 37.5329 2.04335C37.2939 1.79726 37.055 1.55862 36.8161 1.31998C36.2337 1.58099 35.6588 1.842 35.0839 2.11793C36.1367 3.17689 37.1969 4.2284 38.2571 5.27245C38.3616 8.12122 38.4661 10.97 38.5632 13.8187C38.72 18.3976 38.8544 22.9766 38.9962 27.5629C39.041 29.047 39.0858 30.5235 39.1306 32.0076C39.0037 31.9628 38.8693 31.933 38.7424 31.8883C35.0914 30.6503 31.4479 29.3751 27.7969 28.1148C25.1165 27.19 22.4286 26.2802 19.7408 25.363C16.9111 24.4009 14.0739 23.4464 11.2442 22.4769C10.8634 23.0213 10.4901 23.5657 10.1242 24.125C15.2984 25.885 20.4799 27.6226 25.654 29.3825C30.1711 30.9188 34.6882 32.4699 39.1978 34.0136C39.265 36.3106 39.3397 38.6075 39.4143 40.9044C39.4143 40.9939 39.4218 41.0908 39.4218 41.1803C36.5996 42.0827 33.6952 42.7165 30.8804 43.6637C30.2234 43.8874 29.5664 44.1186 28.9168 44.3497C28.4987 43.9247 28.088 43.4996 27.6699 43.0745C26.1991 41.5756 24.7133 40.0841 23.235 38.5851C20.4949 35.8258 17.7323 33.0889 15.0296 30.2924C13.2601 28.4578 11.6474 26.4965 9.74346 24.7813C9.73599 24.7738 9.72106 24.7589 9.71359 24.7514C9.34028 25.3406 8.96697 25.9297 8.60859 26.5338C10.9903 28.95 13.3721 31.3737 15.7538 33.7825C18.9792 37.0489 22.242 40.2854 25.4749 43.5518C25.9527 44.0291 26.4231 44.5138 26.9009 44.9985C23.5262 46.0128 20.1439 46.9972 16.7617 47.9965C14.156 48.772 11.5578 49.5551 8.9595 50.3381C8.00382 50.629 7.04814 50.9198 6.09246 51.2032C4.26323 50.4724 2.434 49.7415 0.604766 49.0032C0.500239 49.7266 0.410644 50.45 0.328515 51.1808C1.15727 51.5164 1.98602 51.8594 2.81478 52.195C1.92629 52.4635 1.03781 52.732 0.156791 53.0004C0.0970613 53.694 0.0373313 54.3726 0 55.0587C1.87403 54.4919 3.74806 53.9252 5.62209 53.3584C9.26562 54.8574 12.9092 56.3414 16.6049 57.7285C20.1514 59.0559 23.6755 60.4729 27.1996 61.8674C30.2831 63.0904 33.3592 64.3358 36.4428 65.5663C37.727 66.0809 39.0186 66.5955 40.3028 67.11C40.6239 75.3655 41.0495 83.606 41.2884 91.8689C41.3182 92.9279 41.4452 93.9943 41.4825 95.0533C41.5721 97.9915 41.6542 100.93 41.7438 103.875C41.3257 103.965 40.9076 104.047 40.4895 104.114C37.6374 104.547 34.7778 104.942 31.9182 105.367C29.8202 105.673 27.7222 105.993 25.6167 106.314C24.7133 106.448 23.8024 106.59 22.899 106.732C23.5784 107.284 24.2579 107.828 24.9597 108.35C26.9756 108.037 28.984 107.724 30.9999 107.418C34.5986 106.873 38.2048 106.336 41.8035 105.807C41.8633 107.425 41.923 109.036 42.0051 110.654C42.1171 112.929 42.1993 115.211 42.2814 117.485C42.804 117.664 43.3192 117.851 43.8418 118.015C43.8866 117.195 43.9314 116.374 43.9613 115.554C43.9837 114.995 43.9912 114.428 43.9538 113.869C43.8568 112.377 43.685 110.886 43.6402 109.387C43.6029 108.104 43.6029 106.821 43.6104 105.539C44.0584 105.471 44.5063 105.404 44.9543 105.337C49.4714 104.666 53.9885 104.01 58.5056 103.324C63.0226 102.638 67.5322 101.899 72.0493 101.213C75.1553 100.743 78.2687 100.341 81.3747 99.8708C81.3821 99.8783 81.3971 99.8932 81.4045 99.9007C82.1586 100.669 82.9874 101.377 83.749 102.145C87.1237 105.568 90.4761 109.014 93.8956 112.392C94.3958 112.101 94.8961 111.81 95.3888 111.505C95.3366 111.452 95.2843 111.408 95.2395 111.363C93.9105 110.013 92.6413 108.611 91.3645 107.209C89.5726 105.233 87.7061 103.324 85.72 101.534C84.9958 100.878 84.2716 100.221 83.5772 99.5352C92.141 98.2153 100.69 96.761 109.261 95.4858C110.045 95.8065 110.829 96.1197 111.628 96.4031C111.755 96.4478 111.874 96.5 112.001 96.5448C112.427 95.9929 112.845 95.4336 113.256 94.8743C113.203 94.8445 113.159 94.8221 113.121 94.8072ZM67.816 34.655C68.8314 35.6841 69.8393 36.7058 70.8547 37.7349C73.3933 40.3003 75.9542 42.8433 78.5002 45.4012C75.5585 44.4169 72.6093 43.4548 69.6676 42.463C67.0619 41.583 64.4636 40.6881 61.8654 39.7858C61.059 39.5024 60.2676 39.1742 59.4612 38.8834C58.6101 38.5776 57.7515 38.2719 56.9003 37.9661C60.1481 36.9743 63.3959 35.9824 66.6512 34.998C67.0395 34.8787 67.4277 34.7669 67.816 34.655ZM33.1054 45.103C35.2332 44.4691 37.3686 43.8352 39.4965 43.2013C39.6383 46.8853 39.7877 50.5768 39.9146 54.2608C39.9295 54.6709 39.937 55.0885 39.9445 55.4987C38.5408 54.0669 37.2491 52.5232 35.7708 51.1584C35.0765 50.5022 34.3448 49.8907 33.6728 49.2195C32.5827 48.1232 31.5076 47.0121 30.4324 45.9084C31.3209 45.6399 32.2094 45.3714 33.1054 45.103ZM37.0849 63.7914C33.4936 62.3298 29.9247 60.801 26.3335 59.3319C20.5471 56.9753 14.7458 54.6635 8.9371 52.3516C11.2292 51.6581 13.5214 50.9571 15.821 50.271C20.0096 49.0107 24.1981 47.7653 28.3792 46.5124C30.6788 48.8466 32.9859 51.1734 35.2855 53.5075C36.8609 55.1109 38.4437 56.7143 40.0191 58.3176C40.0564 60.0403 40.0938 61.7555 40.1535 63.4782C40.1684 64.0077 40.1983 64.5297 40.2132 65.0592C39.1754 64.6341 38.1301 64.2165 37.0849 63.7914ZM40.9673 26.1907C40.8927 25.2511 40.7732 24.3189 40.7433 23.3793C40.6463 20.5678 40.5865 17.7563 40.5044 14.9448C40.4447 12.8791 40.37 10.8059 40.3028 8.74019C40.2879 8.24054 40.2655 7.74834 40.2506 7.24869C40.6089 7.59919 40.9673 7.95715 41.3182 8.30765C43.364 10.3286 45.4396 12.3198 47.5003 14.3259C47.7989 14.6167 48.0901 14.9299 48.3888 15.2282C49.8746 16.7272 51.3379 18.2336 52.8387 19.7102C54.4215 21.2688 56.0716 22.7677 57.6395 24.3487C60.5438 27.2646 63.4258 30.1954 66.3153 33.1262C66.2257 33.156 66.1361 33.1784 66.0465 33.2082C63.1421 34.1031 60.2377 35.013 57.3259 35.9004C56.1761 36.2509 55.0263 36.5865 53.8765 36.9295C53.3016 36.7431 52.7267 36.5641 52.1443 36.3851C48.8666 35.4082 45.7233 34.0136 42.4456 33.0143C41.9977 32.8801 41.5497 32.7459 41.1017 32.6191C41.0047 30.4788 41.1316 28.331 40.9673 26.1907ZM41.2212 34.7147C41.9827 34.9757 42.7368 35.2292 43.4984 35.4902C45.8503 36.2956 48.2096 37.1085 50.5615 37.9139C50.3001 37.9885 50.0314 38.0705 49.77 38.1526C48.9861 38.3837 48.1872 38.5627 47.3958 38.7864C45.3649 39.3532 43.3341 39.9274 41.3257 40.5837C41.3332 40.1586 41.3406 39.741 41.3406 39.3159C41.3257 37.7797 41.3108 36.2434 41.2212 34.7147ZM42.1321 62.024C42.1097 61.4796 42.0873 60.9352 42.0649 60.3983C42.9832 61.3305 43.8941 62.2627 44.8124 63.1874C46.8881 65.2755 48.9786 67.3561 51.0617 69.4442C48.1499 68.2659 45.2306 67.0877 42.3187 65.9168C42.2515 64.6118 42.1918 63.3142 42.1321 62.024ZM71.6984 99.3488C69.3465 99.7217 67.0021 100.117 64.6503 100.482C62.6195 100.796 60.5812 101.094 58.5504 101.385C57.9157 101.474 57.2736 101.511 56.639 101.593C54.7276 101.832 52.8163 102.071 50.9198 102.459C48.5157 102.951 46.0444 103.055 43.6178 103.495C43.6402 100.967 43.5656 98.439 43.3341 95.9183C43.1773 94.1807 43.0131 92.4431 43.14 90.7056C43.2595 89.0947 43.252 87.4988 43.1923 85.8731C43.0056 80.9213 42.9459 75.9695 42.6024 71.0252C42.5352 70.0035 42.483 68.9819 42.4232 67.9602C43.14 68.251 43.8642 68.5344 44.581 68.8178C46.9254 69.7649 49.2623 70.7269 51.5993 71.6964C52.3235 71.9947 53.0328 72.3452 53.757 72.6584C54.0631 72.7926 54.3693 72.9194 54.6679 73.0536C56.7808 75.1865 58.849 77.3641 60.9545 79.4969C67.1291 85.7314 73.4306 91.8465 79.6052 98.0885C76.9696 98.521 74.334 98.9237 71.6984 99.3488ZM103.878 94.1509C98.8532 94.9265 93.8135 95.5902 88.8185 96.5224C86.5264 96.9475 84.2268 97.3278 81.9197 97.7081C80.9043 96.4478 79.8142 95.277 78.6644 94.1285C75.1105 90.5639 71.6387 86.9171 67.9653 83.4643C65.7403 81.3688 63.5751 79.2135 61.395 77.0732C60.6782 76.3648 59.9615 75.6563 59.2522 74.9404C59.6106 75.0746 59.9764 75.2163 60.3348 75.3506C63.2989 76.417 66.0987 77.8861 69.0554 78.9824C70.1678 79.3925 71.2952 79.7579 72.3928 80.1979C75.6779 81.5328 78.9556 82.9125 82.2333 84.2623C84.6449 85.2541 87.064 86.2385 89.483 87.2229C93.9553 89.0425 98.4351 90.8323 102.885 92.6967C103.811 93.0845 104.729 93.4947 105.64 93.8974C105.058 93.9719 104.468 94.054 103.878 94.1509Z" fill="#0D3025"/>
</g>
<defs>
<clipPath id="clip0">
<rect width="125" height="118" fill="white"/>
</clipPath>
</defs>
</svg>
